<?xml version="1.0" encoding="UTF-8"?>
<svg id="Lag_1" data-name="Lag 1" xmlns="http://www.w3.org/2000/svg" viewBox="0 0 126.26 47.31">
  <defs>
    <style>
      .cls-1 {
        fill: #e5e3db;
      }

      .cls-1, .cls-2, .cls-3 {
        stroke-width: 0px;
      }

      .cls-2 {
        fill: #1d1d1b;
      }

      .cls-4 {
        isolation: isolate;
      }

      .cls-3 {
        fill: #fff;
      }
    </style>
  </defs>
  <rect class="cls-3" width="126.26" height="47.31" rx="10.45" ry="10.45"/>
  <g>
    <rect class="cls-1" x="2.99" y="3.44" width="120.29" height="40.97" rx="10.45" ry="10.45"/>
    <g class="cls-4">
      <g class="cls-4">
        <g class="cls-4">
          <path class="cls-2" d="M17.86,24.52c0,1.14-.31,2.08-.93,2.83-.62.74-1.41,1.12-2.38,1.12-.59,0-1.4-.26-2.43-.77-.08-.04-.14-.06-.2-.06-.16,0-.29.23-.38.68-.03.14-.07.21-.12.21-.08,0-.12-.09-.12-.26,0-.16.02-.45.07-.86.04-.34.06-.73.06-1.18,0-.36,0-.65-.01-.86-.02-.43-.03-.68-.03-.75,0-.2.05-.3.15-.3s.18.27.26.81c.13.93.44,1.65.91,2.16.51.55,1.06.83,1.65.83.52,0,.96-.21,1.32-.64.36-.43.53-.95.53-1.56,0-.53-.12-.95-.35-1.26-.17-.23-.73-.67-1.68-1.33-1.05-.73-1.76-1.45-2.14-2.18-.35-.66-.52-1.45-.52-2.37,0-1.08.29-1.97.88-2.68.59-.71,1.33-1.06,2.23-1.06.48,0,1,.15,1.55.45.18.1.31.15.39.15.14,0,.24-.16.29-.49.02-.11.06-.17.13-.17.1,0,.14.08.14.24,0,.06,0,.24-.03.53-.02.29-.03.53-.03.71,0,.65.02,1.2.06,1.65,0,.04.01.09.01.15,0,.11-.04.17-.12.17-.09,0-.17-.2-.26-.6-.09-.4-.24-.8-.46-1.19-.22-.39-.44-.68-.66-.85-.29-.23-.63-.34-1.01-.34-.54,0-.97.17-1.29.51-.32.34-.48.8-.48,1.39,0,.51.15.97.45,1.36s.87.9,1.72,1.51c1.04.75,1.73,1.35,2.07,1.8.49.66.74,1.5.74,2.52Z"/>
          <path class="cls-2" d="M24.39,25.93c0,.28-.13.64-.38,1.09-.54.96-1.24,1.45-2.11,1.45-.97,0-1.77-.4-2.4-1.2-.63-.8-.94-1.83-.94-3.08s.3-2.25.91-3.07c.61-.82,1.36-1.23,2.27-1.23.62,0,1.14.18,1.58.53.48.39.8.95.94,1.67.04.23.07.49.09.81-.22.03-1.11.06-2.68.08-.24,0-.54.01-.91.04-.03.45-.04.83-.04,1.14,0,1.46.24,2.49.71,3.11.28.36.62.54,1.03.54.34,0,.66-.15.98-.45.31-.3.55-.69.72-1.16.08-.24.14-.36.19-.36.04,0,.06.04.06.11ZM22.56,22.64c0-.96-.04-1.62-.16-1.99-.12-.37-.32-.56-.61-.56-.59,0-.93.85-1.01,2.55h1.78Z"/>
          <path class="cls-2" d="M40.54,28.15c0,.11-.07.16-.22.13h-3.22c-.14,0-.2-.04-.2-.11,0-.06.11-.1.34-.11.28-.01.43-.13.43-.34v-4.22c0-1.3-.03-2.08-.1-2.35-.1-.37-.34-.55-.73-.55-.36,0-.64.2-.85.6-.09.16-.14.35-.15.55-.02.24-.03.89-.03,1.94v3.59c0,.38.03.6.08.66.05.06.23.09.54.09.09,0,.13.03.13.09,0,.1-.05.15-.16.15-.1,0-.17,0-.23-.02l-2.81-.04c-.09,0-.13-.04-.13-.11s.12-.11.35-.11c.17,0,.27-.03.3-.09l.03-.19v-4.61c0-1.18-.05-1.89-.16-2.14-.11-.24-.32-.37-.65-.37-.4,0-.69.21-.88.64-.07.16-.11.33-.12.5s-.02.66-.02,1.48v3.74c0,.58.03.9.08.95.05.06.19.08.4.08h.22c.1,0,.14.03.14.1,0,.08-.04.12-.13.12h-.95c-.77.02-1.18.03-1.23.03-.46.02-.81.02-1.03.02h-.2c-.12,0-.19-.05-.19-.15,0-.09.04-.13.13-.13l.33.08c.16.01.3-.04.4-.15.08-.09.12-.35.12-.79v-3.12c0-1.75-.02-2.69-.06-2.81-.08-.11-.38-.17-.9-.17-.14,0-.2-.04-.2-.13,0-.1.06-.15.19-.15.96-.02,1.82-.3,2.57-.83.09-.06.15-.09.19-.09.05,0,.07.05.07.15,0,.19,0,.34-.01.47v.79c.44-.94,1.1-1.41,1.96-1.41.97,0,1.54.51,1.72,1.54.22-.55.49-.95.81-1.18.32-.24.74-.36,1.26-.36,1.22,0,1.83.88,1.83,2.64v4.64c0,.4.01.65.04.74.02.09.1.14.24.15.19.03.37.04.52.04.1,0,.14.04.14.11Z"/>
          <path class="cls-2" d="M44.72,28.11c0,.09-.04.13-.13.13h-3.65c-.12,0-.17-.04-.17-.12,0-.06.11-.1.33-.1.33-.01.52-.06.58-.14.06-.08.09-.33.09-.75v-5.42c0-.48-.03-.76-.09-.86-.06-.09-.25-.14-.57-.14-.2,0-.32,0-.35-.02-.03-.01-.05-.06-.05-.13,0-.09.07-.13.22-.13,1.06-.01,1.97-.23,2.72-.64.02.15.04.56.07,1.24v5.92c0,.51.04.81.11.9.07.09.32.13.75.13.11,0,.16.04.16.13ZM43.7,16.2c0,.35-.09.65-.28.9-.19.25-.41.38-.68.38s-.51-.12-.69-.36c-.19-.24-.28-.54-.28-.9s.09-.64.28-.86c.19-.23.43-.34.72-.34.27,0,.49.11.67.34.18.23.27.51.27.85Z"/>
          <path class="cls-2" d="M52.6,28.11c0,.1-.12.15-.36.15h-3.09c-.14,0-.2-.05-.2-.14,0-.08.06-.12.17-.12h.11c.25,0,.39-.04.43-.12.04-.08.06-.36.06-.84v-3.64c0-1.35-.07-2.15-.2-2.42-.11-.23-.32-.34-.61-.34s-.54.12-.73.36-.28.54-.28.9v5.68c.02.15.06.25.12.29.06.04.22.07.47.08.08,0,.12.04.12.11s-.03.12-.1.13c-.07.01-.31.02-.72.02s-.76,0-1.03.02c-.53.02-1.07.04-1.62.04-.12,0-.17-.04-.17-.13,0-.1.15-.15.44-.15s.46-.07.51-.22l.04-.26v-4.31c0-1.21,0-1.84-.03-1.89-.03-.19-.16-.28-.39-.28h-.49c-.15,0-.23-.04-.23-.12s.06-.13.17-.14c1.07-.06,1.93-.36,2.58-.88.08-.05.13-.08.16-.08.08,0,.12.1.12.3v1.07c.51-.86,1.17-1.3,1.97-1.3s1.37.38,1.62,1.13c.11.31.17.66.2,1.05.02.39.04,1.19.04,2.4v2.72c0,.39.02.62.07.69.05.07.2.1.47.1s.4.05.4.15Z"/>
          <path class="cls-2" d="M58.76,25.93c0,.28-.13.64-.38,1.09-.54.96-1.24,1.45-2.11,1.45-.97,0-1.77-.4-2.4-1.2-.63-.8-.94-1.83-.94-3.08s.3-2.25.91-3.07c.61-.82,1.36-1.23,2.27-1.23.62,0,1.14.18,1.58.53.48.39.8.95.94,1.67.04.23.07.49.09.81-.22.03-1.11.06-2.68.08-.24,0-.54.01-.91.04-.03.45-.04.83-.04,1.14,0,1.46.24,2.49.71,3.11.28.36.62.54,1.03.54.34,0,.66-.15.98-.45.31-.3.55-.69.72-1.16.08-.24.14-.36.19-.36.04,0,.06.04.06.11ZM56.94,22.64c0-.96-.04-1.62-.16-1.99-.12-.37-.32-.56-.61-.56-.59,0-.93.85-1.01,2.55h1.78Z"/>
          <path class="cls-2" d="M68.52,24.01c0,1.27-.28,2.34-.84,3.19-.56.85-1.25,1.27-2.09,1.27-.63,0-1.14-.33-1.53-.98v4.21c0,.35.01.57.04.66.03.09.09.15.19.18.1.02.35.04.76.06.1,0,.16.06.16.18,0,.09-.06.14-.19.14h-3.64c-.21,0-.32-.05-.32-.15,0-.09.17-.13.52-.13.29,0,.45-.04.48-.11.03-.08.05-.31.05-.71v-10.4c0-.26-.07-.43-.23-.49-.08-.04-.24-.06-.49-.06h-.27c-.08,0-.12-.04-.12-.11,0-.1.06-.14.17-.11,1.02-.04,1.92-.29,2.69-.75.04.08.06.18.07.3l.03.47v.32c.27-.42.53-.7.78-.86.25-.15.57-.23.97-.23.8,0,1.47.39,2,1.17.53.78.79,1.76.79,2.95ZM66.39,23.93c0-2.39-.41-3.58-1.24-3.58-.36,0-.67.22-.92.67-.12.21-.17.57-.17,1.07v3.69c0,.8.08,1.34.23,1.63.22.42.52.64.89.64.8,0,1.21-1.37,1.21-4.12Z"/>
          <path class="cls-2" d="M74.55,21.27c0,.36-.08.66-.25.89-.16.23-.38.35-.64.35-.52,0-.78-.31-.78-.94,0-.21.06-.43.19-.64.03-.05.04-.09.04-.13,0-.11-.06-.17-.19-.17-.32,0-.57.33-.74.99-.1.37-.14,1.29-.14,2.75v3.02c0,.34.13.52.39.54.15.01.34.02.55.02.11.01.16.06.16.13,0,.1-.04.15-.13.15h-1.55s-.18,0-.65,0h-1.59c-.11,0-.16-.04-.16-.12s.07-.12.2-.12c.4-.01.63-.07.72-.16.08-.09.12-.37.12-.83v-5.06c-.01-.42-.06-.72-.15-.88-.09-.16-.3-.26-.61-.3-.25-.02-.39-.04-.43-.05s-.05-.05-.05-.12.04-.11.12-.11h.53c.74,0,1.54-.2,2.4-.6.05.25.07.54.07.86v.79c.18-.61.38-1.03.6-1.28.22-.25.5-.37.85-.37.33,0,.6.13.8.39.21.26.31.59.31,1Z"/>
          <path class="cls-2" d="M81.62,24.24c0,1.34-.4,2.42-1.21,3.25-.64.65-1.34.98-2.1.98-.91,0-1.69-.42-2.35-1.27-.66-.85-.99-1.84-.99-3s.33-2.23.99-3.07c.66-.85,1.46-1.27,2.39-1.27s1.67.43,2.31,1.29c.64.86.96,1.89.96,3.09ZM79.44,24.26c0-1.55-.08-2.62-.24-3.19-.18-.64-.47-.96-.88-.96-.37,0-.67.33-.88,1-.21.67-.32,1.59-.32,2.77,0,1.64.12,2.8.37,3.49.2.55.48.83.85.83.45,0,.75-.35.89-1.05.13-.66.2-1.63.2-2.89Z"/>
          <path class="cls-2" d="M85.1,25.39c0,1.95-.01,3.18-.04,3.69-.03.51-.12,1.02-.26,1.53-.2.7-.55,1.29-1.03,1.77s-.99.72-1.51.72c-.39,0-.7-.14-.95-.41s-.38-.63-.38-1.05c0-.74.29-1.11.88-1.11s.85.36.85,1.07c0,.2-.03.42-.1.66-.03.1-.04.19-.04.28,0,.12.05.19.16.19.27,0,.44-.53.5-1.6v-8.49c0-1,0-1.55-.03-1.63,0-.14-.1-.21-.28-.21h-.73c-.14,0-.21-.05-.21-.14,0-.07.13-.12.39-.14.9-.06,1.72-.27,2.47-.62.08-.03.13-.04.16-.04.06,0,.09.12.1.36.04.74.06,1.6.06,2.57v2.59ZM85.1,16.2c0,.35-.09.65-.27.88-.18.24-.4.36-.67.36s-.49-.12-.67-.35c-.17-.23-.26-.53-.26-.89s.09-.64.27-.85c.18-.22.41-.33.7-.33.26,0,.48.11.64.33s.25.5.25.85Z"/>
          <path class="cls-2" d="M92.18,25.93c0,.28-.13.64-.38,1.09-.54.96-1.24,1.45-2.11,1.45-.97,0-1.77-.4-2.4-1.2-.63-.8-.94-1.83-.94-3.08s.3-2.25.91-3.07c.61-.82,1.36-1.23,2.27-1.23.62,0,1.14.18,1.58.53.48.39.8.95.94,1.67.04.23.07.49.09.81-.22.03-1.11.06-2.68.08-.24,0-.54.01-.91.04-.03.45-.04.83-.04,1.14,0,1.46.24,2.49.71,3.11.28.36.62.54,1.03.54.34,0,.66-.15.98-.45.31-.3.55-.69.72-1.16.08-.24.14-.36.19-.36.04,0,.06.04.06.11ZM90.35,22.64c0-.96-.04-1.62-.16-1.99-.12-.37-.32-.56-.61-.56-.59,0-.93.85-1.01,2.55h1.78Z"/>
          <path class="cls-2" d="M100.39,28.11c0,.09-.18.13-.53.13h-3.09c-.14,0-.2-.04-.2-.13s.13-.14.39-.15c.16-.01.25-.08.25-.21s-.2-.61-.61-1.46c-.12-.23-.28-.58-.51-1.05-.15-.35-.37-.81-.65-1.37v2.77c0,.66.02,1.05.05,1.16.03.11.14.17.32.17h.26c.09,0,.14.05.14.14s-.05.14-.16.14h-3.37c-.11,0-.16-.04-.16-.13s.13-.14.38-.15c.32-.01.5-.05.54-.11s.06-.38.06-.94v-9.88c0-.49-.04-.79-.12-.9-.08-.11-.31-.16-.67-.15-.19,0-.28-.05-.28-.14,0-.08.02-.13.06-.14.04-.01.18-.03.42-.04.97-.05,1.66-.21,2.05-.49.13-.1.25-.16.35-.17.04.18.06.51.07,1.01l.06,2.01v5.58c.15-.16.4-.5.75-1.01.14-.22.36-.54.65-.97.46-.68.69-1.05.69-1.1,0-.06-.03-.1-.09-.11-.06-.01-.25-.02-.58-.04-.22,0-.33-.05-.33-.15,0-.09.06-.13.17-.13h2.23c.17,0,.26.04.26.11s-.2.13-.59.15c-.26.01-.47.12-.64.34-.3.38-.68.9-1.14,1.58l1.66,3.27c.09.19.23.47.42.84.03.05.1.19.22.41l.24.46.12.22c.11.21.19.35.26.4s.2.08.39.08.28.05.28.15Z"/>
          <path class="cls-2" d="M104.84,27.02c0,.14-.09.32-.28.54-.48.59-1.13.88-1.97.88-.77,0-1.27-.24-1.51-.73-.1-.19-.15-.36-.17-.53-.01-.16-.02-.58-.02-1.26v-.9c.02-.24.03-.49.03-.75l-.03-.39v-3.04c0-.23-.02-.36-.07-.39-.05-.04-.19-.06-.43-.06-.29,0-.43-.05-.43-.15,0-.08.05-.12.16-.15.91-.04,1.69-.68,2.34-1.92.09-.18.15-.26.2-.26.06,0,.09.09.09.26,0,1.08.02,1.67.1,1.77s.31.15.71.15.69-.02.85-.08c.02-.01.04-.02.06-.02.04,0,.06.04.06.12,0,.18-.06.28-.19.28-.39.01-.83.02-1.31.02h-.2v.39c0,3.34.02,5.29.06,5.87.09.72.36,1.08.82,1.08.21,0,.47-.19.79-.56.16-.18.25-.26.29-.26.03,0,.04.03.04.09Z"/>
          <path class="cls-2" d="M110.58,25.93c0,.28-.13.64-.38,1.09-.54.96-1.24,1.45-2.11,1.45-.97,0-1.77-.4-2.4-1.2-.63-.8-.94-1.83-.94-3.08s.3-2.25.91-3.07c.61-.82,1.36-1.23,2.27-1.23.62,0,1.14.18,1.58.53.48.39.8.95.94,1.67.04.23.07.49.09.81-.22.03-1.11.06-2.68.08-.24,0-.54.01-.91.04-.03.45-.04.83-.04,1.14,0,1.46.24,2.49.71,3.11.28.36.62.54,1.03.54.34,0,.66-.15.98-.45.31-.3.55-.69.72-1.16.08-.24.14-.36.19-.36.04,0,.06.04.06.11ZM108.76,22.64c0-.96-.04-1.62-.16-1.99-.12-.37-.32-.56-.61-.56-.59,0-.93.85-1.01,2.55h1.78Z"/>
          <path class="cls-2" d="M116.47,21.27c0,.36-.08.66-.25.89-.16.23-.38.35-.64.35-.52,0-.78-.31-.78-.94,0-.21.06-.43.19-.64.03-.05.04-.09.04-.13,0-.11-.06-.17-.19-.17-.32,0-.57.33-.74.99-.1.37-.14,1.29-.14,2.75v3.02c0,.34.13.52.39.54.15.01.34.02.55.02.11.01.16.06.16.13,0,.1-.04.15-.13.15h-1.55s-.18,0-.65,0h-1.59c-.11,0-.16-.04-.16-.12s.07-.12.2-.12c.4-.01.63-.07.72-.16.08-.09.12-.37.12-.83v-5.06c-.01-.42-.06-.72-.15-.88-.09-.16-.3-.26-.61-.3-.25-.02-.39-.04-.43-.05s-.05-.05-.05-.12.04-.11.12-.11h.53c.74,0,1.54-.2,2.4-.6.05.25.07.54.07.86v.79c.18-.61.38-1.03.6-1.28.22-.25.5-.37.85-.37.33,0,.6.13.8.39.21.26.31.59.31,1Z"/>
        </g>
      </g>
    </g>
  </g>
</svg>