<?xml version="1.0" encoding="UTF-8"?>
<svg id="Lag_1" data-name="Lag 1" xmlns="http://www.w3.org/2000/svg" version="1.1" viewBox="0 0 126.3 47.3">
  <defs>
    <style>
      .cls-1 {
        fill: #e5e3db;
      }

      .cls-1, .cls-2, .cls-3 {
        stroke-width: 0px;
      }

      .cls-2 {
        fill: #1d1d1b;
      }

      .cls-4 {
        isolation: isolate;
      }

      .cls-3 {
        fill: #fff;
      }
    </style>
  </defs>
  <rect class="cls-3" width="126.3" height="47.3" rx="10.4" ry="10.4"/>
  <g>
    <rect class="cls-1" x="3" y="3.4" width="120.3" height="41" rx="10.4" ry="10.4"/>
    <g class="cls-4">
      <g class="cls-4">
        <g class="cls-4">
          <path class="cls-2" d="M17.9,24.5c0,1.1-.3,2.1-.9,2.8-.6.7-1.4,1.1-2.4,1.1s-1.4-.3-2.4-.8c0,0-.1,0-.2,0-.2,0-.3.2-.4.7,0,.1,0,.2-.1.2,0,0-.1,0-.1-.3s0-.5,0-.9c0-.3,0-.7,0-1.2s0-.6,0-.9c0-.4,0-.7,0-.8,0-.2,0-.3.1-.3s.2.3.3.8c.1.9.4,1.6.9,2.2.5.5,1.1.8,1.6.8s1-.2,1.3-.6.5-1,.5-1.6-.1-1-.4-1.3c-.2-.2-.7-.7-1.7-1.3-1.1-.7-1.8-1.5-2.1-2.2-.4-.7-.5-1.5-.5-2.4s.3-2,.9-2.7c.6-.7,1.3-1.1,2.2-1.1s1,.1,1.5.4c.2.1.3.1.4.1.1,0,.2-.2.3-.5,0-.1,0-.2.1-.2.1,0,.1,0,.1.2s0,.2,0,.5c0,.3,0,.5,0,.7,0,.6,0,1.2,0,1.6,0,0,0,0,0,.1,0,.1,0,.2-.1.2s-.2-.2-.3-.6-.2-.8-.5-1.2c-.2-.4-.4-.7-.7-.9-.3-.2-.6-.3-1-.3-.5,0-1,.2-1.3.5s-.5.8-.5,1.4.1,1,.4,1.4.9.9,1.7,1.5c1,.8,1.7,1.4,2.1,1.8.5.7.7,1.5.7,2.5h0Z"/>
          <path class="cls-2" d="M24.4,25.9c0,.3-.1.6-.4,1.1-.5,1-1.2,1.5-2.1,1.5s-1.8-.4-2.4-1.2c-.6-.8-.9-1.8-.9-3.1s.3-2.2.9-3.1,1.4-1.2,2.3-1.2,1.1.2,1.6.5c.5.4.8,1,.9,1.7,0,.2,0,.5,0,.8-.2,0-1.1,0-2.7,0-.2,0-.5,0-.9,0,0,.5,0,.8,0,1.1,0,1.5.2,2.5.7,3.1.3.4.6.5,1,.5s.7-.1,1-.5c.3-.3.5-.7.7-1.2,0-.2.1-.4.2-.4s0,0,0,.1h0ZM22.6,22.6c0-1,0-1.6-.2-2-.1-.4-.3-.6-.6-.6-.6,0-.9.9-1,2.5h1.8Z"/>
          <path class="cls-2" d="M40.5,28.1c0,.1,0,.2-.2.1h-3.2c-.1,0-.2,0-.2-.1s.1-.1.3-.1c.3,0,.4-.1.4-.3v-4.2c0-1.3,0-2.1,0-2.4,0-.4-.3-.5-.7-.5s-.6.2-.8.6c0,.2-.1.4-.2.5,0,.2,0,.9,0,1.9v3.6c0,.4,0,.6,0,.7,0,0,.2,0,.5,0s.1,0,.1,0c0,.1,0,.1-.2.1s-.2,0-.2,0h-2.8c0,0-.1,0-.1-.2s.1-.1.3-.1.3,0,.3,0v-.2s0-4.6,0-4.6c0-1.2,0-1.9-.2-2.1-.1-.2-.3-.4-.7-.4s-.7.2-.9.6c0,.2-.1.3-.1.5s0,.7,0,1.5v3.7c0,.6,0,.9,0,1,0,0,.2,0,.4,0h.2c0,0,.1,0,.1.1s0,.1-.1.1h-1c-.8,0-1.2,0-1.2,0-.5,0-.8,0-1,0h-.2c-.1,0-.2,0-.2-.1s0-.1.1-.1h.3c.2,0,.3,0,.4,0,0,0,.1-.4.1-.8v-3.1c0-1.8,0-2.7,0-2.8,0-.1-.4-.2-.9-.2s-.2,0-.2-.1,0-.1.2-.1c1,0,1.8-.3,2.6-.8,0,0,.1,0,.2,0s0,0,0,.1c0,.2,0,.3,0,.5v.8c.4-.9,1.1-1.4,2-1.4s1.5.5,1.7,1.5c.2-.5.5-1,.8-1.2.3-.2.7-.4,1.3-.4,1.2,0,1.8.9,1.8,2.6v4.6c0,.4,0,.6,0,.7,0,0,0,.1.2.1.2,0,.4,0,.5,0s.1,0,.1.1h0Z"/>
          <path class="cls-2" d="M44.7,28.1c0,0,0,.1-.1.1h-3.7c-.1,0-.2,0-.2-.1s.1-.1.3-.1c.3,0,.5,0,.6-.1s0-.3,0-.8v-5.4c0-.5,0-.8,0-.9,0,0-.2-.1-.6-.1s-.3,0-.3,0c0,0,0,0,0-.1s0-.1.2-.1c1.1,0,2-.2,2.7-.6,0,.1,0,.6,0,1.2v5.9c0,.5,0,.8.1.9s.3.1.8.1.2,0,.2.1h0ZM43.7,16.2c0,.4,0,.6-.3.9s-.4.4-.7.4-.5-.1-.7-.4c-.2-.2-.3-.5-.3-.9s0-.6.3-.9c.2-.2.4-.3.7-.3s.5.1.7.3c.2.2.3.5.3.8h0Z"/>
          <path class="cls-2" d="M52.6,28.1c0,.1-.1.1-.4.1h-3.1c-.1,0-.2,0-.2-.1s0-.1.2-.1h.1c.2,0,.4,0,.4-.1s0-.4,0-.8v-3.6c0-1.4,0-2.1-.2-2.4-.1-.2-.3-.3-.6-.3s-.5.1-.7.4-.3.5-.3.9v5.7c0,.1,0,.2.1.3,0,0,.2,0,.5,0,0,0,.1,0,.1.1s0,.1,0,.1c0,0-.3,0-.7,0s-.8,0-1,0c-.5,0-1.1,0-1.6,0s-.2,0-.2-.1.2-.1.4-.1.5,0,.5-.2v-.3s0-4.3,0-4.3c0-1.2,0-1.8,0-1.9,0-.2-.2-.3-.4-.3h-.5c-.2,0-.2,0-.2-.1s0-.1.2-.1c1.1,0,1.9-.4,2.6-.9,0,0,.1,0,.2,0,0,0,.1.1.1.3v1.1c.5-.9,1.2-1.3,2-1.3s1.4.4,1.6,1.1c.1.3.2.7.2,1,0,.4,0,1.2,0,2.4v2.7c0,.4,0,.6,0,.7s.2.1.5.1.4,0,.4.1h0Z"/>
          <path class="cls-2" d="M58.8,25.9c0,.3-.1.6-.4,1.1-.5,1-1.2,1.5-2.1,1.5s-1.8-.4-2.4-1.2c-.6-.8-.9-1.8-.9-3.1s.3-2.2.9-3.1,1.4-1.2,2.3-1.2,1.1.2,1.6.5c.5.4.8,1,.9,1.7,0,.2,0,.5,0,.8-.2,0-1.1,0-2.7,0-.2,0-.5,0-.9,0,0,.5,0,.8,0,1.1,0,1.5.2,2.5.7,3.1.3.4.6.5,1,.5s.7-.1,1-.5c.3-.3.5-.7.7-1.2,0-.2.1-.4.2-.4s0,0,0,.1h0ZM56.9,22.6c0-1,0-1.6-.2-2-.1-.4-.3-.6-.6-.6-.6,0-.9.9-1,2.5h1.8Z"/>
          <path class="cls-2" d="M68.5,24c0,1.3-.3,2.3-.8,3.2s-1.2,1.3-2.1,1.3-1.1-.3-1.5-1v4.2c0,.3,0,.6,0,.7s0,.2.2.2c0,0,.3,0,.8,0,0,0,.2,0,.2.2s0,.1-.2.1h-3.6c-.2,0-.3,0-.3-.2s.2-.1.5-.1.5,0,.5-.1c0,0,0-.3,0-.7v-10.4c0-.3,0-.4-.2-.5,0,0-.2,0-.5,0h-.3c0,0-.1,0-.1-.1,0-.1,0-.1.2-.1,1,0,1.9-.3,2.7-.8,0,0,0,.2,0,.3v.5s0,.3,0,.3c.3-.4.5-.7.8-.9.2-.1.6-.2,1-.2.8,0,1.5.4,2,1.2s.8,1.8.8,3h0ZM66.4,23.9c0-2.4-.4-3.6-1.2-3.6s-.7.2-.9.7c-.1.2-.2.6-.2,1.1v3.7c0,.8,0,1.3.2,1.6.2.4.5.6.9.6.8,0,1.2-1.4,1.2-4.1Z"/>
          <path class="cls-2" d="M74.6,21.3c0,.4,0,.7-.2.9-.2.2-.4.4-.6.4-.5,0-.8-.3-.8-.9s0-.4.2-.6c0,0,0,0,0-.1,0-.1,0-.2-.2-.2-.3,0-.6.3-.7,1,0,.4-.1,1.3-.1,2.8v3c0,.3.1.5.4.5.2,0,.3,0,.6,0,.1,0,.2,0,.2.1,0,.1,0,.1-.1.1h-3.8c-.1,0-.2,0-.2-.1s0-.1.2-.1c.4,0,.6,0,.7-.2,0,0,.1-.4.1-.8v-5.1c0-.4,0-.7-.2-.9,0-.2-.3-.3-.6-.3-.2,0-.4,0-.4,0s0,0,0-.1,0-.1.1-.1h.5c.7,0,1.5-.2,2.4-.6,0,.2,0,.5,0,.9v.8c.2-.6.4-1,.6-1.3s.5-.4.8-.4.6.1.8.4c.2.3.3.6.3,1h0Z"/>
          <path class="cls-2" d="M81.6,24.2c0,1.3-.4,2.4-1.2,3.2-.6.6-1.3,1-2.1,1s-1.7-.4-2.3-1.3c-.7-.9-1-1.8-1-3s.3-2.2,1-3.1c.7-.9,1.5-1.3,2.4-1.3s1.7.4,2.3,1.3c.6.9,1,1.9,1,3.1ZM79.4,24.3c0-1.5,0-2.6-.2-3.2-.2-.6-.5-1-.9-1s-.7.3-.9,1-.3,1.6-.3,2.8.1,2.8.4,3.5c.2.5.5.8.8.8s.8-.4.9-1c.1-.7.2-1.6.2-2.9h0Z"/>
          <path class="cls-2" d="M85.1,25.4c0,2,0,3.2,0,3.7s-.1,1-.3,1.5c-.2.7-.6,1.3-1,1.8s-1,.7-1.5.7-.7-.1-.9-.4-.4-.6-.4-1c0-.7.3-1.1.9-1.1s.8.4.8,1.1,0,.4,0,.7c0,0,0,.2,0,.3s0,.2.2.2c.3,0,.4-.5.5-1.6v-8.5c0-1,0-1.5,0-1.6,0-.1,0-.2-.3-.2h-.7c-.1,0-.2,0-.2-.1s.1-.1.4-.1c.9,0,1.7-.3,2.5-.6,0,0,.1,0,.2,0,0,0,0,.1,0,.4,0,.7,0,1.6,0,2.6v2.6h0ZM85.1,16.2c0,.4,0,.6-.3.9-.2.2-.4.4-.7.4s-.5-.1-.7-.4c-.2-.2-.3-.5-.3-.9s0-.6.3-.9c.2-.2.4-.3.7-.3s.5.1.6.3.2.5.2.9h0Z"/>
          <path class="cls-2" d="M92.2,25.9c0,.3-.1.6-.4,1.1-.5,1-1.2,1.5-2.1,1.5s-1.8-.4-2.4-1.2c-.6-.8-.9-1.8-.9-3.1s.3-2.2.9-3.1,1.4-1.2,2.3-1.2,1.1.2,1.6.5c.5.4.8,1,.9,1.7,0,.2,0,.5,0,.8-.2,0-1.1,0-2.7,0-.2,0-.5,0-.9,0,0,.5,0,.8,0,1.1,0,1.5.2,2.5.7,3.1.3.4.6.5,1,.5s.7-.1,1-.5c.3-.3.6-.7.7-1.2,0-.2.1-.4.2-.4s0,0,0,.1h0ZM90.3,22.6c0-1,0-1.6-.2-2-.1-.4-.3-.6-.6-.6-.6,0-.9.9-1,2.5h1.8Z"/>
          <path class="cls-2" d="M100.4,28.1c0,0-.2.1-.5.1h-3.1c-.1,0-.2,0-.2-.1s.1-.1.4-.1c.2,0,.2,0,.2-.2s-.2-.6-.6-1.5c-.1-.2-.3-.6-.5-1-.2-.4-.4-.8-.7-1.4v2.8c0,.7,0,1,0,1.2,0,.1.1.2.3.2h.3c0,0,.1,0,.1.1s0,.1-.2.1h-3.4c-.1,0-.2,0-.2-.1s.1-.1.4-.1c.3,0,.5,0,.5-.1s0-.4,0-.9v-9.9c0-.5,0-.8-.1-.9,0-.1-.3-.2-.7-.1-.2,0-.3,0-.3-.1s0-.1,0-.1.2,0,.4,0c1,0,1.7-.2,2.1-.5.1-.1.2-.2.3-.2,0,.2,0,.5,0,1v2c0,0,0,5.6,0,5.6.2-.2.4-.5.8-1,.1-.2.4-.5.7-1,.5-.7.7-1,.7-1.1s0-.1,0-.1-.2,0-.6,0c-.2,0-.3,0-.3-.1s0-.1.2-.1h2.2c.2,0,.3,0,.3.1s-.2.1-.6.1c-.3,0-.5.1-.6.3-.3.4-.7.9-1.1,1.6l1.7,3.3c0,.2.2.5.4.8,0,0,0,.2.2.4l.2.5v.2c.2.2.3.4.4.4s.2,0,.4,0,.3,0,.3.1h0Z"/>
          <path class="cls-2" d="M104.8,27c0,.1,0,.3-.3.5-.5.6-1.1.9-2,.9s-1.3-.2-1.5-.7c0-.2-.2-.4-.2-.5,0-.2,0-.6,0-1.3v-.9c0-.2,0-.5,0-.8v-.4s0-3,0-3c0-.2,0-.4,0-.4,0,0-.2,0-.4,0s-.4,0-.4-.1,0-.1.2-.1c.9,0,1.7-.7,2.3-1.9,0-.2.2-.3.2-.3s0,0,0,.3c0,1.1,0,1.7,0,1.8s.3.1.7.1.7,0,.8,0c0,0,0,0,0,0,0,0,0,0,0,.1,0,.2,0,.3-.2.3-.4,0-.8,0-1.3,0h-.2v.4c0,3.3,0,5.3,0,5.9,0,.7.4,1.1.8,1.1s.5-.2.8-.6c.2-.2.2-.3.3-.3s0,0,0,0h0Z"/>
          <path class="cls-2" d="M110.6,25.9c0,.3-.1.6-.4,1.1-.5,1-1.2,1.5-2.1,1.5s-1.8-.4-2.4-1.2c-.6-.8-.9-1.8-.9-3.1s.3-2.2.9-3.1,1.4-1.2,2.3-1.2,1.1.2,1.6.5c.5.4.8,1,.9,1.7,0,.2,0,.5,0,.8-.2,0-1.1,0-2.7,0-.2,0-.5,0-.9,0,0,.5,0,.8,0,1.1,0,1.5.2,2.5.7,3.1.3.4.6.5,1,.5s.7-.1,1-.5c.3-.3.6-.7.7-1.2,0-.2.1-.4.2-.4s0,0,0,.1h0ZM108.8,22.6c0-1,0-1.6-.2-2-.1-.4-.3-.6-.6-.6-.6,0-.9.9-1,2.5h1.8Z"/>
          <path class="cls-2" d="M116.5,21.3c0,.4,0,.7-.2.9-.2.2-.4.4-.6.4-.5,0-.8-.3-.8-.9s0-.4.2-.6c0,0,0,0,0-.1,0-.1,0-.2-.2-.2-.3,0-.6.3-.7,1,0,.4-.1,1.3-.1,2.8v3c0,.3.1.5.4.5.2,0,.3,0,.6,0,.1,0,.2,0,.2.1,0,.1,0,.1-.1.1h-3.8c-.1,0-.2,0-.2-.1s0-.1.2-.1c.4,0,.6,0,.7-.2,0,0,.1-.4.1-.8v-5.1c0-.4,0-.7-.2-.9,0-.2-.3-.3-.6-.3-.2,0-.4,0-.4,0s0,0,0-.1,0-.1.1-.1h.5c.7,0,1.5-.2,2.4-.6,0,.2,0,.5,0,.9v.8c.2-.6.4-1,.6-1.3s.5-.4.8-.4.6.1.8.4c.2.3.3.6.3,1h0Z"/>
        </g>
      </g>
    </g>
  </g>
</svg>