<?xml version="1.0" encoding="UTF-8"?>
<svg id="Lag_1" data-name="Lag 1" xmlns="http://www.w3.org/2000/svg" version="1.1" viewBox="0 0 595.28 841.89">
  <defs>
    <style>
      .cls-1 {
        fill: #e5e3db;
      }

      .cls-1, .cls-2 {
        stroke-width: 0px;
      }

      .cls-3, .cls-4 {
        isolation: isolate;
      }

      .cls-4 {
        fill: #1e1e1c;
        font-family: BodoniSvtyTwoITCTT-Bold, 'Bodoni 72';
        font-size: 61.82px;
        font-weight: 700;
      }

      .cls-2 {
        fill: #fff;
      }
    </style>
  </defs>
  <path class="cls-2" d="M56.8,7.16h478.72c26.22,0,47.48,15.4,47.48,34.4v86.94c0,19-21.26,34.4-47.48,34.4H56.8c-26.22,0-47.48-15.4-47.48-34.4V41.56C9.32,22.56,30.58,7.16,56.8,7.16Z"/>
  <path class="cls-1" d="M71.38,18.12h451.59c26.22,0,47.48,15.4,47.48,34.4v66.07c0,19-21.26,34.4-47.48,34.4H71.38c-26.22,0-47.48-15.4-47.48-34.4V52.52c0-19,21.26-34.4,47.48-34.4Z"/>
  <g class="cls-3">
    <g class="cls-3">
      <text class="cls-4" transform="translate(139.81 98.5) scale(1.06 1)"><tspan x="0" y="0" xml:space="preserve">Se  projekt</tspan></text>
    </g>
  </g>
</svg>